<svg width="20" height="20" viewBox="0 0 20 20" fill="none" xmlns="http://www.w3.org/2000/svg">
<path d="M5.68917 5.14582C5.53916 5.38325 5.33902 5.58497 5.10278 5.73685C4.86655 5.88872 4.59994 5.98707 4.32167 6.02499C4.005 6.06999 3.69083 6.11832 3.37667 6.17082C2.49917 6.31665 1.875 7.08916 1.875 7.97832V15C1.875 15.4973 2.07254 15.9742 2.42417 16.3258C2.77581 16.6774 3.25272 16.875 3.75 16.875H16.25C16.7473 16.875 17.2242 16.6774 17.5758 16.3258C17.9275 15.9742 18.125 15.4973 18.125 15V7.97832C18.125 7.08916 17.5 6.31665 16.6233 6.17082C16.3089 6.11844 15.9939 6.06982 15.6783 6.02499C15.4002 5.98696 15.1338 5.88856 14.8977 5.73669C14.6616 5.58481 14.4616 5.38315 14.3117 5.14582L13.6267 4.04915C13.4728 3.79924 13.261 3.59007 13.0092 3.43935C12.7574 3.28864 12.473 3.20082 12.18 3.18332C10.7277 3.10532 9.27229 3.10532 7.82 3.18332C7.52705 3.20082 7.24262 3.28864 6.9908 3.43935C6.73898 3.59007 6.52718 3.79924 6.37333 4.04915L5.68917 5.14582Z" stroke="#4C4D4F" stroke-linecap="round" stroke-linejoin="round"/>
<path d="M13.75 10.625C13.75 11.6196 13.3549 12.5734 12.6516 13.2766C11.9484 13.9799 10.9946 14.375 10 14.375C9.00544 14.375 8.05161 13.9799 7.34835 13.2766C6.64509 12.5734 6.25 11.6196 6.25 10.625C6.25 9.63044 6.64509 8.67661 7.34835 7.97335C8.05161 7.27009 9.00544 6.875 10 6.875C10.9946 6.875 11.9484 7.27009 12.6516 7.97335C13.3549 8.67661 13.75 9.63044 13.75 10.625ZM15.625 8.75H15.6317V8.75667H15.625V8.75Z" stroke="#4C4D4F" stroke-linecap="round" stroke-linejoin="round"/>
</svg>
